# xmcd
# 
# Track frame offsets:
#     150
#     14860
#     34912
#     55512
#     78920
#     97412
#     121212
#     140242
#     155592
#     171872
#     189542
#     204557
#     217917
#     245842
# 
# Disc length: 3943
# 
# Revision: 1
# Processed by: cddbd v1.5.2PL0 Copyright (c) Steve Scherf et al.
# Submitted via: BonkEnc v1.0.8
# 
DISCID=d00f650e
DTITLE=Various Artist - Jazz At The Santa Monica Civic '72
DYEAR=1972
DGENRE=Jazz
TTITLE0=[Ella Fitzgerald and The Count Basie Orchestra With The Tommy Flanagan Trio] L.O.V.E.
TTITLE1=[Ella Fitzgerald and The Count Basie Orchestra With The Tommy Flanagan Trio] Begin The Beguine
TTITLE2=[Ella Fitzgerald and The Count Basie Orchestra With The Tommy Flanagan Trio] Indian Summer
TTITLE3=[Ella Fitzgerald and The Count Basie Orchestra With The Tommy Flanagan Trio] You've Got A Friend
TTITLE4=[Ella Fitzgerald and The Count Basie Orchestra With The Tommy Flanagan Trio] What's Going On
TTITLE5=[Ella Fitzgerald and The Tommy Flanagan Trio] Night And Day
TTITLE6=[Ella Fitzgerald and The Tommy Flanagan Trio] Spring Can Really Hang You Up The Most
TTITLE7=[Ella Fitzgerald and The Tommy Flanagan Trio] Little White Lies
TTITLE8=[Ella Fitzgerald and The Tommy Flanagan Trio] Madalena
TTITLE9=[Ella Fitzgerald and The Count Basie Orchestra With The Tommy Flanagan Trio] Shiny Stockings
TTITLE10=[Ella Fitzgerald and The Count Basie Orchestra With The Tommy Flanagan Trio] Cole Porter Medley
TTITLE11=[Ella Fitzgerald and The Count Basie Orchestra With The Tommy Flanagan Trio] Sanford And Son  Theme
TTITLE12=[Ella Fitzgerald and The Count Basie Orchestra With The Tommy Flanagan Trio] I Can't Stop Loving You
TTITLE13=[Ella Fitzgerald, Count Basie and The Jazz At The Philharmonic All-Stars] Finale: C Jam Blues
EXTD=YEAR: 1972
EXTT0=
EXTT1=
EXTT2=
EXTT3=
EXTT4=
EXTT5=
EXTT6=
EXTT7=
EXTT8=
EXTT9=
EXTT10=
EXTT11=
EXTT12=
EXTT13=
PLAYORDER=
